<svg xmlns="http://www.w3.org/2000/svg" width="24" height="24" fill="currentColor" class="bi bi-heart-pulse me-2"
    viewBox="0 0 16 16">
    <path
        d="M8 14.41L7.9 14.3l-.03-.02c-2.61-2.22-4.52-4.04-5.07-5.59a3.89 3.89 0 0 1 .47-3.9 3.5 3.5 0 0 1 4.54-.5l.21.16a1.35 1.35 0 0 0 1.95-.31l.07-.11a3.5 3.5 0 0 1 4.7.12 3.89 3.89 0 0 1 .47 3.9c-.55 1.55-2.46 3.37-5.07 5.59l-.03.02zM12.11 3.51a2.5 2.5 0 0 0-3.32-.1c-.48.42-1.2.42-1.68 0a2.5 2.5 0 0 0-3.32.1 2.89 2.89 0 0 0-.35 2.9c.41 1.16 2.08 2.76 4.57 4.9l.06.05.06-.05c2.49-2.14 4.16-3.74 4.57-4.9a2.89 2.89 0 0 0-.35-2.9" />
</svg>